<svg width="917" height="702" viewBox="0 0 917 702" fill="none" xmlns="http://www.w3.org/2000/svg">
<path d="M593.734 489.409C771.991 489.409 916.498 380.066 916.498 245.184C916.498 110.303 771.991 0.959839 593.734 0.959839C415.476 0.959839 270.97 110.303 270.97 245.184C270.97 380.066 415.476 489.409 593.734 489.409Z" fill="black"/>
<path d="M593.734 432.82C726.938 432.82 834.92 348.813 834.92 245.184C834.92 141.556 726.938 57.5486 593.734 57.5486C460.53 57.5486 352.548 141.556 352.548 245.184C352.548 348.813 460.53 432.82 593.734 432.82Z" fill="white"/>
<path d="M395.745 373.073L9.83604 657.705C4.86927 661.368 10.7242 672.708 22.9131 683.032C35.102 693.357 49.0092 698.757 53.9759 695.094L439.885 410.463C444.852 406.799 438.997 395.46 426.808 385.135C414.62 374.81 400.712 369.41 395.745 373.073Z" fill="black"/>
</svg>
