<svg width="22" height="23" viewBox="0 0 22 23" fill="none" xmlns="http://www.w3.org/2000/svg">
<path fill-rule="evenodd" clip-rule="evenodd" d="M10.7221 12.7481L9.2429 11.6947C8.63016 11.2595 8.49263 10.4162 8.93271 9.81168C9.37279 9.20565 10.2254 9.06812 10.8367 9.50489L12.3158 10.5583C12.9286 10.9935 13.0676 11.8368 12.626 12.4413C12.1859 13.0458 11.3333 13.1834 10.7221 12.7481ZM16.3018 13.3964L17.0413 13.9238L21.1472 8.28371C21.5384 7.74569 21.4161 6.99458 20.8706 6.60769L19.15 5.38052C18.7466 5.09489 18.1889 5.04199 17.787 5.32914C16.9772 5.90796 15.8525 5.9397 14.9983 5.33065C14.1442 4.7216 13.8172 3.65614 14.1151 2.71461C14.2633 2.24611 14.0357 1.73983 13.6338 1.45268L11.9117 0.227024C11.3677 -0.161378 10.6083 -0.0389635 10.2155 0.499056L6.11121 6.13919L6.85079 6.66663C7.46201 7.10188 7.60106 7.94518 7.16098 8.5497C6.7209 9.15421 5.86825 9.29174 5.25551 8.85649L4.51593 8.32905L0.22976 14.2155C-0.16142 14.7551 -0.0391758 15.5047 0.506337 15.8931L2.22692 17.1187C2.63032 17.4059 3.18806 17.4588 3.58994 17.1716C4.3998 16.5928 5.52444 16.561 6.37862 17.1701C7.2328 17.7791 7.5598 18.8431 7.26183 19.7861C7.11361 20.2531 7.34129 20.7609 7.74317 21.0481L9.46528 22.2737C10.0093 22.6606 10.7687 22.5397 11.1614 22.0002L15.4461 16.1137L14.7065 15.5863C14.0953 15.151 13.9562 14.3077 14.3963 13.7032C14.8364 13.0987 15.689 12.9612 16.3018 13.3964Z" fill="#FF3D71"/>
</svg>
